<?xml version="1.0" encoding="utf-8"?>
<!-- Generator: Adobe Illustrator 27.1.0, SVG Export Plug-In . SVG Version: 6.00 Build 0)  -->
<svg fill="#F0EBE8" version="1.1" id="Layer_1" xmlns="http://www.w3.org/2000/svg" xmlns:xlink="http://www.w3.org/1999/xlink" x="0px" y="0px"
	 viewBox="820 1385 2075 965" style="enable-background:new 0 0 3710.8 3710.8;" xml:space="preserve">
<g>
	<g>
		<g>
			<path d="M993.4,1849.9c-78.6,0-135.6-44.8-135.1-106.9h85.8c0,22.1,21.6,38.2,51.5,38.2c23.8,0,41-11.6,41-26.6
				c0-17.7-21-24.4-60.3-27.1c-61.5-5-116.3-16.6-116.3-88c0-59.2,55.4-101.9,130.1-101.9c79.2,0,136.8,42.1,136.8,100.2l-90.3-0.6
				c-0.6-17.7-19.9-31-46-31c-21,0-37.1,10.5-37.1,24.4c0,17.2,28.8,21,47.6,24.4c61.5,6.1,137.3,17.7,137.3,86.4
				C1138.4,1804.5,1079.7,1849.9,993.4,1849.9z"/>
			<path d="M1168,1836.6v-285.7h102.4v35.4c17.2-30.4,49.8-46.5,84.7-46.5c38.8,0,70.3,18.3,86.4,48.2
				c17.2-29.9,56.5-48.2,94.1-48.2c63.7,0,106.3,44.8,106.3,110.2v186.6h-106.9v-158.3c0-24.9-14.4-44.3-39.3-45.4
				c-24.4,0-39.9,18.8-39.9,45.4v158.3h-106.3v-158.3c0-27.1-14.9-45.4-37.1-45.4c-23.3,0-37.7,18.3-37.7,45.4v158.3H1168z"/>
			<path d="M1889.5,1550.9h106.3v285.7h-106.3v-36.5c-20.5,29.9-50.9,47.6-88,47.6c-77.5,0-130.1-62.6-130.1-153.9
				c0-91.4,52.6-153.9,130.1-153.9c37.1,0,67.5,17.7,88,47.6V1550.9z M1889,1693.8c0-35.4-23.3-60.9-55.4-60.9
				c-32.7,0-55.4,25.5-55.4,60.9c0,34.9,22.7,60.9,55.4,60.9C1865.7,1754.7,1889,1728.6,1889,1693.8z"/>
			<path d="M2131.6,1423.6v413h-106.3v-413H2131.6z"/>
			<path d="M2267.2,1423.6v413h-106.3v-413H2267.2z"/>
			<path d="M2459.3,1539.8c94.7,0,156.7,62,156.7,153.9c0,8.3-0.6,23.3-1.1,28.8h-207.6c7.2,29.9,26.6,48.2,55.4,48.2
				c24.4,0,42.1-13.3,48.7-31.6l94.1,12.2c-12.7,55.9-74.2,96.3-148.4,96.3c-94.1,0-159.5-62.6-159.5-155
				C2297.7,1601.8,2364.6,1539.8,2459.3,1539.8z M2508.6,1666.6c-1.7-27.1-22.7-50.4-51.5-50.4c-27.1,0-44.8,19.9-50.4,50.4H2508.6z
				"/>
			<path d="M2748,1550.9v36c15.5-28.2,44.8-47.1,75.3-47.1c10.5,0,21.6,2.8,32.1,6.6v94.7c-17.2-7.2-37.1-11.6-50.4-11.6
				c-31.6,0-52.6,24.4-52.6,59.8v147.3h-106.9v-285.7H2748z"/>
		</g>
		<g>
			<path d="M1061,1887.5l100.1,0.1l-0.3,269.1l-100.1-0.1l0-34.4c-19.3,28.1-48,44.8-83,44.8c-73-0.1-122.5-59.1-122.4-145.1
				c0.1-86,49.7-144.9,122.7-144.8c34.9,0,63.6,16.8,82.9,44.9L1061,1887.5z M1060.4,2022.1c0-33.4-21.8-57.4-52.1-57.4
				c-30.8,0-52.2,23.9-52.2,57.3c0,32.9,21.3,57.4,52.1,57.4C1038.4,2079.4,1060.3,2054.9,1060.4,2022.1z"/>
			<path d="M1391.4,2151.7l0-29.2c-19.8,22.9-47,35.9-80.9,35.9c-69.4-0.1-119.9-55.4-119.8-136.2c0.1-86,50.7-144.9,120.1-144.8
				c33.9,0,61.5,14.1,80.8,38.7l0-28.2l100.1,0.1l-0.3,267.5c-0.1,80.8-59.6,131.9-147.7,131.8c-76.7-0.1-136.6-45.5-142.8-108.1
				l87.6-9.3c4.7,24,26,41.2,51.1,41.3C1370,2211.2,1391.4,2188.2,1391.4,2151.7z M1395.7,2022.4c0-33.4-21.8-57.4-52.1-57.4
				c-30.8,0-52.2,23.9-52.2,57.3c0,32.3,21.3,56.3,52.1,56.4C1373.8,2078.7,1395.7,2054.8,1395.7,2022.4z"/>
			<path d="M1672.7,1877.7c89.2,0.1,147.5,58.6,147.4,145.1c0,7.8-0.5,21.9-1.1,27.1l-195.6-0.2c6.8,28.2,25,45.4,52.1,45.4
				c22.9,0,39.7-12.5,45.9-29.7l88.6,11.6c-12.1,52.7-70,90.7-139.9,90.6c-88.7-0.1-150.1-59.1-150-146.2
				C1520.4,1936,1583.5,1877.6,1672.7,1877.7z M1719,1997.2c-1.5-25.6-21.3-47.5-48.5-47.5c-25.6,0-42.3,18.7-47.5,47.4L1719,1997.2
				z"/>
			<path d="M1945.8,1888.4l0,38.6c19.3-29.7,48.6-49,84-48.9c55.3,0.1,94.3,44.9,94.3,107l-0.2,172.6l-100.6-0.1l0.1-149.7
				c0-25-13.5-42.3-35.4-42.3c-21.9,0-38.6,17.7-38.6,43.8l-0.1,148.1l-100.6-0.1l0.3-269.1L1945.8,1888.4z"/>
			<path d="M2442.4,1989.6l-92.3,11.9c-5.2-22.9-25.5-39.7-49-39.7c-29.2,0-51.1,25.5-51.2,61.5c0,35.5,21.3,61.6,51,61.6
				c23.5,0,43.8-16.6,49.1-39.6l92.3,11c-8.4,65.2-69.5,112-142.5,112c-86-0.1-150.7-61.2-150.6-145.1
				c0.1-84,63.8-144.9,150.9-144.8C2373.7,1878.4,2434.6,1924.9,2442.4,1989.6z"/>
			<path d="M2478.7,2200.8c6.8,2.6,20.3,4.2,28.7,4.2c29.7,0,45.4-10.9,55.8-42.2l-132.7-273.9l109,0.1l61.9,147.6l47.1-147.5
				l103.3,0.1l-102.5,281.5c-27.7,76.1-61.1,110.5-112.7,110.4c-18.8,0-42.2-4.2-57.9-10L2478.7,2200.8z"/>
		</g>
	</g>
	<path d="M2855.4,2051.3v106.3h-106.3v-106.3H2855.4z"/>
</g>
</svg>
